<?xml version="1.0" encoding="iso-8859-1"?>
<!-- Generator: Adobe Illustrator 21.0.2, SVG Export Plug-In . SVG Version: 6.00 Build 0)  -->
<svg xmlns="http://www.w3.org/2000/svg" xmlns:xlink="http://www.w3.org/1999/xlink" version="1.1" x="0px" y="0px" viewBox="0 0 40 40" style="enable-background:new 0 0 40 40;" xml:space="preserve">
<g id="Layer_1">
</g>
<g id="Layer_2">
	<line style="fill:none;stroke:#4788C7;stroke-linecap:round;stroke-miterlimit:10;" x1="26.5" y1="2.5" x2="36" y2="7"/>
	<path style="fill:none;stroke:#4788C7;stroke-linecap:round;stroke-miterlimit:10;" d="M36.5,38.5V36c0-4.887-3.613-8.5-8.5-8.5   H10.5c-4.895,0-9-4.059-9-8.955V18.5c0-4.895,4.105-9,9-9h13"/>
	<g>
		<path style="fill:#DFF0FE;" d="M23,13.5c-0.276,0-0.5-0.224-0.5-0.5v-2.5H21c-0.276,0-0.5-0.224-0.5-0.5V9    c0-0.276,0.224-0.5,0.5-0.5h1.5V6c0-0.276,0.224-0.5,0.5-0.5h15c0.276,0,0.5,0.224,0.5,0.5v7c0,0.276-0.224,0.5-0.5,0.5H23z"/>
		<path style="fill:#4788C7;" d="M38,6v7H23v-2v-1h-1h-1V9h1h1V8V6H38 M38,5H23c-0.552,0-1,0.448-1,1v2h-1c-0.552,0-1,0.448-1,1v1    c0,0.552,0.448,1,1,1h1v2c0,0.552,0.448,1,1,1h15c0.552,0,1-0.448,1-1V6C39,5.448,38.552,5,38,5L38,5z"/>
	</g>
	<rect x="28" y="10" style="fill:#98CCFD;" width="10" height="3"/>
</g>
</svg>
