<?xml version="1.0" encoding="iso-8859-1"?>
<!-- Generator: Adobe Illustrator 21.0.2, SVG Export Plug-In . SVG Version: 6.00 Build 0)  -->
<svg xmlns="http://www.w3.org/2000/svg" xmlns:xlink="http://www.w3.org/1999/xlink" version="1.1" x="0px" y="0px" viewBox="0 0 40 40" style="enable-background:new 0 0 40 40;" xml:space="preserve">
<g id="Layer_1">
</g>
<g id="Layer_2">
	<g>
		<rect x="2.5" y="2.5" style="fill:#DFF0FE;" width="35" height="35"/>
		<path style="fill:#4788C7;" d="M37,3v34H3V3H37 M38,2H2v36h36V2L38,2z"/>
	</g>
	<g>
		<circle style="fill:#B6DCFE;" cx="9" cy="17" r="2.5"/>
		<g>
			<path style="fill:#4788C7;" d="M9,15c1.103,0,2,0.897,2,2s-0.897,2-2,2s-2-0.897-2-2S7.897,15,9,15 M9,14c-1.657,0-3,1.343-3,3     s1.343,3,3,3s3-1.343,3-3S10.657,14,9,14L9,14z"/>
		</g>
	</g>
	<g>
		<circle style="fill:#98CCFD;" cx="9" cy="9" r="2.5"/>
		<g>
			<path style="fill:#4788C7;" d="M9,7c1.103,0,2,0.897,2,2s-0.897,2-2,2s-2-0.897-2-2S7.897,7,9,7 M9,6C7.343,6,6,7.343,6,9     s1.343,3,3,3s3-1.343,3-3S10.657,6,9,6L9,6z"/>
		</g>
	</g>
	<g>
		<rect x="15.5" y="6.5" style="fill:#98CCFD;" width="18" height="27"/>
		<path style="fill:#4788C7;" d="M33,7v26H16V7H33 M34,6H15v28h19V6L34,6z"/>
	</g>
	<rect x="27" y="6.308" style="fill:#4788C7;" width="1" height="27.692"/>
	<rect x="21" y="6" style="fill:#4788C7;" width="1" height="27.692"/>
	<path style="fill:#FFFFFF;" d="M30.5,12L30.5,12c-0.276,0-0.5-0.224-0.5-0.5v-2C30,9.224,30.224,9,30.5,9h0   C30.776,9,31,9.224,31,9.5v2C31,11.776,30.776,12,30.5,12z"/>
	<path style="fill:#FFFFFF;" d="M24.5,12L24.5,12c-0.276,0-0.5-0.224-0.5-0.5v-2C24,9.224,24.224,9,24.5,9h0   C24.776,9,25,9.224,25,9.5v2C25,11.776,24.776,12,24.5,12z"/>
	<path style="fill:#FFFFFF;" d="M18.5,12L18.5,12c-0.276,0-0.5-0.224-0.5-0.5v-2C18,9.224,18.224,9,18.5,9h0   C18.776,9,19,9.224,19,9.5v2C19,11.776,18.776,12,18.5,12z"/>
</g>
</svg>
