<svg width="22" height="22" viewBox="0 0 22 22" version="1.1" xmlns="http://www.w3.org/2000/svg" xmlns:xlink="http://www.w3.org/1999/xlink">
<title>Group</title>
<desc>Created using Figma</desc>
<g id="Canvas" transform="translate(-9776 -990)">
<g id="Group">
<g id="Oval">
<use xlink:href="#path0_fill" transform="translate(9777 991)" fill="#CCD2DA" fill-opacity="0.4"/>
<mask id="mask0_outline_out">
<rect id="mask0_outline_inv" fill="white" x="-1" y="-1" width="22" height="22" transform="translate(9777 991)"/>
<use xlink:href="#path0_fill" fill="black" transform="translate(9777 991)"/>
</mask>
<g mask="url(#mask0_outline_out)">
<use xlink:href="#path1_stroke_2x" transform="translate(9777 991)" fill="#CCD2DA"/>
</g>
</g>
<g id="Shape">
<use xlink:href="#path2_stroke" transform="translate(9783 997)" fill="#FFFFFF"/>
</g>
<g id="Shape">
<use xlink:href="#path3_stroke" transform="translate(9783 997)" fill="#FFFFFF"/>
</g>
</g>
</g>
<defs>
<path id="path0_fill" fill-rule="evenodd" d="M 10 20C 15.5228 20 20 15.5228 20 10C 20 4.47715 15.5228 0 10 0C 4.47715 0 0 4.47715 0 10C 0 15.5228 4.47715 20 10 20Z"/>
<path id="path1_stroke_2x" d="M 10 21C 16.0751 21 21 16.0751 21 10L 19 10C 19 14.9706 14.9706 19 10 19L 10 21ZM 21 10C 21 3.92487 16.0751 -1 10 -1L 10 1C 14.9706 1 19 5.02944 19 10L 21 10ZM 10 -1C 3.92487 -1 -1 3.92487 -1 10L 1 10C 1 5.02944 5.02944 1 10 1L 10 -1ZM -1 10C -1 16.0751 3.92487 21 10 21L 10 19C 5.02944 19 1 14.9706 1 10L -1 10Z"/>
<path id="path2_stroke" d="M 7.29289 -0.707107L -0.707107 7.29289L 0.707107 8.70711L 8.70711 0.707107L 7.29289 -0.707107Z"/>
<path id="path3_stroke" d="M 8.70711 7.29289L 0.707107 -0.707107L -0.707107 0.707107L 7.29289 8.70711L 8.70711 7.29289Z"/>
</defs>
</svg>
