<?xml version="1.0" encoding="iso-8859-1"?>
<!-- Generator: Adobe Illustrator 21.0.2, SVG Export Plug-In . SVG Version: 6.00 Build 0)  -->
<svg xmlns="http://www.w3.org/2000/svg" xmlns:xlink="http://www.w3.org/1999/xlink" version="1.1" x="0px" y="0px" viewBox="0 0 40 40" style="enable-background:new 0 0 40 40;" xml:space="preserve">
<g id="Layer_1">
</g>
<g id="Layer_2">
	<g>
		<g>
			<polygon style="fill:#98CCFD;" points="1.5,38.5 1.5,29 5.434,1.5 34.566,1.5 38.505,29.071 38.5,38.5    "/>
		</g>
		<g>
			<path style="fill:#4788C7;" d="M34.133,2L38,29.071V38H2v-8.929L5.867,2H34.133 M35,1H5L1,29v10h38V29L35,1L35,1z"/>
		</g>
	</g>
	<polygon style="fill:#DFF0FE;" points="37.951,29 2.01,29 5.803,2 34.073,2  "/>
	<circle style="fill:#FFFFFF;" cx="33.5" cy="33.5" r="1.5"/>
	<circle style="fill:#FFFFFF;" cx="10.5" cy="33.5" r="1.5"/>
	<circle style="fill:#FFFFFF;" cx="14.5" cy="33.5" r="1.5"/>
	<circle style="fill:#FFFFFF;" cx="6.5" cy="33.5" r="1.5"/>
	<g>
		<circle style="fill:#98CCFD;" cx="20" cy="11" r="3.5"/>
		<g>
			<path style="fill:#4788C7;" d="M20,8c1.654,0,3,1.346,3,3s-1.346,3-3,3s-3-1.346-3-3S18.346,8,20,8 M20,7c-2.209,0-4,1.791-4,4     s1.791,4,4,4s4-1.791,4-4S22.209,7,20,7L20,7z"/>
		</g>
	</g>
	<g>
		<path style="fill:#98CCFD;" d="M13.519,23.5c0.256-3.352,3.065-6,6.481-6s6.225,2.648,6.481,6H13.519z"/>
		<g>
			<path style="fill:#4788C7;" d="M20,18c2.968,0,5.439,2.166,5.917,5H14.083C14.561,20.166,17.032,18,20,18 M20,17     c-3.866,0-7,3.134-7,7h14C27,20.134,23.866,17,20,17L20,17z"/>
		</g>
	</g>
</g>
</svg>
