<?xml version="1.0" encoding="iso-8859-1"?>
<!-- Generator: Adobe Illustrator 21.0.2, SVG Export Plug-In . SVG Version: 6.00 Build 0)  -->
<svg xmlns="http://www.w3.org/2000/svg" xmlns:xlink="http://www.w3.org/1999/xlink" version="1.1" id="&#1057;&#1083;&#1086;&#1081;_1" x="0px" y="0px" viewBox="0 0 40 40" style="enable-background:new 0 0 40 40;" xml:space="preserve">
<g>
	<g>
		<polygon style="fill:#98CCFD;" points="4.5,24.5 4.5,18.058 8.396,1.5 31.534,1.5 35.5,18.059 35.5,24.5   "/>
	</g>
	<g>
		<path style="fill:#4788C7;" d="M31.14,2L35,18.118V24H5v-5.884L8.792,2H31.14 M31.929,1H8L4,18v7h32v-7L31.929,1L31.929,1z"/>
	</g>
</g>
<polygon style="fill:#DFF0FE;" points="35,18 5,18 8.808,2 31.129,2 "/>
<g>
	<rect x="4.5" y="24.5" style="fill:#98CCFD;" width="31" height="7"/>
	<path style="fill:#4788C7;" d="M35,25v6H5v-6H35 M36,24H4v8h32V24L36,24z"/>
</g>
<g>
	<rect x="4.5" y="31.5" style="fill:#98CCFD;" width="31" height="7"/>
	<path style="fill:#4788C7;" d="M35,32l0,6H5v-6H35 M36,31H4v8h32L36,31L36,31z"/>
</g>
<circle style="fill:#FFFFFF;" cx="30" cy="35" r="2"/>
<circle style="fill:#FFFFFF;" cx="30" cy="28" r="2"/>
<circle style="fill:#FFFFFF;" cx="30" cy="21" r="2"/>
</svg>
